<svg width="225" height="225" viewBox="0 0 225 225" fill="none" xmlns="http://www.w3.org/2000/svg">
<path d="M224.75 112.376C224.75 50.312 174.437 0 112.375 0C50.313 0 0 50.312 0 112.376C0 174.437 50.313 224.749 112.375 224.749C112.697 224.749 113.015 224.727 113.337 224.727V146.331H86.28V114.995H113.337V91.889C113.337 65.073 129.715 50.47 153.633 50.47C165.094 50.47 174.943 51.324 177.813 51.704V79.73L161.22 79.737C148.211 79.737 145.695 85.918 145.695 94.989V114.994H176.721L172.681 146.33H145.695V219.726C191.487 205.528 224.75 162.837 224.75 112.376Z" fill="#395398"/>
<path d="M172.68 146.331L176.72 114.995H145.694V94.9899C145.694 85.9179 148.211 79.7379 161.219 79.7379L177.812 79.731V51.705C174.942 51.325 165.093 50.4709 153.632 50.4709C129.714 50.4709 113.336 65.0729 113.336 91.8899V114.996H86.2791V146.332H113.336V224.728C124.593 224.632 135.458 222.899 145.693 219.728V146.332H172.68V146.331Z" fill="white"/>
</svg>
