<svg width="371" height="278" viewBox="0 0 371 278" fill="none" xmlns="http://www.w3.org/2000/svg">
<path d="M25.2 277.631H84.1V134.631L0 71.5305V252.331C0 266.331 11.3 277.631 25.2 277.631Z" fill="#517BBD"/>
<path d="M286 277.63H344.9C358.8 277.63 370.1 266.33 370.1 252.43V71.6304L286 134.73V277.63Z" fill="#31A853"/>
<path d="M286 25.3304V134.63L370.1 71.5304V37.9304C370.1 6.73042 334.5 -11.0696 309.5 7.63042L286 25.3304Z" fill="#FBBC08"/>
<path fill-rule="evenodd" clip-rule="evenodd" d="M84.1001 134.63V25.3303L185 101.03L285.9 25.3303V134.63L185 210.33L84.1001 134.63Z" fill="#E84336"/>
<path d="M0 37.9305V71.5305L84.1 134.63V25.3305L60.5 7.63048C35.6 -11.0695 0 6.83048 0 37.9305Z" fill="#C6221F"/>
</svg>
