<svg width="225" height="226" viewBox="0 0 225 226" fill="none" xmlns="http://www.w3.org/2000/svg">
<path d="M112.375 225.485C174.438 225.485 224.75 175.173 224.75 113.11C224.75 51.0472 174.438 0.735107 112.375 0.735107C50.312 0.735107 0 51.0472 0 113.11C0 175.173 50.312 225.485 112.375 225.485Z" fill="url(#paint0_linear_232_650)"/>
<path d="M152.157 82.704C156.978 82.704 160.887 78.7951 160.887 73.9733C160.887 69.1515 156.978 65.2427 152.157 65.2427C147.335 65.2427 143.426 69.1515 143.426 73.9733C143.426 78.7951 147.335 82.704 152.157 82.704Z" fill="white"/>
<path d="M113.345 76.4358C93.124 76.4358 76.6714 92.8885 76.6714 113.11C76.6714 133.331 93.124 149.783 113.345 149.783C133.566 149.783 150.016 133.331 150.016 113.11C150.016 92.8885 133.566 76.4358 113.345 76.4358ZM113.345 136.601C100.392 136.601 89.8542 126.063 89.8542 113.11C89.8542 100.157 100.392 89.6187 113.345 89.6187C126.298 89.6187 136.836 100.157 136.836 113.11C136.836 126.063 126.298 136.601 113.345 136.601Z" fill="white"/>
<path d="M142.459 187.567H83.006C58.3411 187.567 38.2769 167.503 38.2769 142.838V83.382C38.2769 58.7171 58.3411 38.6528 83.006 38.6528H142.459C167.124 38.6528 187.191 58.7171 187.191 83.382V142.838C187.191 167.503 167.124 187.567 142.459 187.567ZM83.006 52.6622C66.0659 52.6622 52.2863 66.4418 52.2863 83.382V142.838C52.2863 159.778 66.0659 173.558 83.006 173.558H142.459C159.399 173.558 173.182 159.778 173.182 142.838V83.382C173.182 66.4418 159.399 52.6622 142.459 52.6622H83.006Z" fill="white"/>
<defs>
<linearGradient id="paint0_linear_232_650" x1="16.5493" y1="208.937" x2="259.406" y2="-33.9199" gradientUnits="userSpaceOnUse">
<stop offset="0.0011" stop-color="#FBE18A"/>
<stop offset="0.2094" stop-color="#FCBB45"/>
<stop offset="0.3765" stop-color="#F75274"/>
<stop offset="0.5238" stop-color="#D53692"/>
<stop offset="0.7394" stop-color="#8F39CE"/>
<stop offset="1" stop-color="#5B4FE9"/>
</linearGradient>
</defs>
</svg>
