<svg width="225" height="225" viewBox="0 0 225 225" fill="none" xmlns="http://www.w3.org/2000/svg">
<circle cx="112.5" cy="112.5" r="112.5" fill="#2CA5E0"/>
<path d="M168.841 62.7925L149.256 161.546C149.256 161.546 146.515 168.394 138.984 165.108L93.7837 130.454L77.3465 122.508L49.6795 113.194C49.6795 113.194 45.4319 111.691 45.0233 108.401C44.6104 105.113 49.8157 103.33 49.8157 103.33L159.803 60.1855C159.803 60.1855 168.841 56.2189 168.841 62.7925Z" fill="white"/>
<path d="M90.308 160.439C90.308 160.439 88.9915 160.311 87.3443 155.11C85.7015 149.905 77.3467 122.513 77.3467 122.513L143.774 80.3213C143.774 80.3213 147.611 77.9954 147.477 80.3213C147.477 80.3213 148.16 80.7342 146.105 82.6516C144.053 84.569 93.9201 129.629 93.9201 129.629L90.308 160.439Z" fill="#D2E5F1"/>
<path d="M111.114 143.74L93.2323 160.041C93.2323 160.041 91.8359 161.1 90.3076 160.439L93.7317 130.158L111.114 143.74Z" fill="#B5CFE4"/>
</svg>
