<svg width="225" height="225" viewBox="0 0 225 225" fill="none" xmlns="http://www.w3.org/2000/svg">
<path d="M224.75 112.376C224.75 174.439 174.437 224.75 112.374 224.75C50.314 224.75 0 174.439 0 112.376C0 50.312 50.314 0 112.374 0C174.437 0 224.75 50.312 224.75 112.376Z" fill="#7BC5F8"/>
<path d="M178.97 73.511C176.07 74.314 173.785 74.188 173.785 74.188L173.878 73.637C176.579 71.473 183.393 64.838 184.292 61.736C184.682 60.393 184.22 59.932 184.217 59.887L175.515 63.583L168.232 66.868C163.206 61.546 155.598 58.157 147.089 58.157C131.95 58.157 119.675 68.881 119.675 82.112C119.675 84.533 120.037 88.949 120.799 91.151C120.826 90.456 120.799 91.844 120.799 91.151C111.049 90.883 98.553 86.885 87.425 81.247C65.476 70.126 64.102 62.43 64.102 62.43C60.657 66.088 58.875 78.21 62.372 87.715C64.607 93.798 72.297 99.26 72.297 99.26C72.297 99.26 68.859 99.323 65.258 98.103C61.654 96.886 60.294 95.679 60.294 95.679C58.152 100.903 62.451 110.232 69.876 116.923C74.205 120.827 82.112 123.272 82.112 123.272L69.759 123.623C69.066 135.628 94.94 142.759 94.94 142.759C87.357 148.594 78.557 152.146 69.125 152.146C64.236 152.146 59.514 151.415 55.031 150.076C67.491 160.343 83.505 167.43 100.92 166.515C147.117 164.088 173.196 124.376 174.438 85.375L174.499 85.454C174.499 85.454 176.662 84.375 181.29 79.746C185.916 75.119 188.796 69.703 188.796 69.703C188.796 69.703 181.875 72.71 178.97 73.511Z" fill="white"/>
<path d="M184.22 59.8879C184.255 60.6259 184.22 59.9609 184.22 59.8879Z" fill="white"/>
</svg>
