<svg width="225" height="225" viewBox="0 0 225 225" fill="none" xmlns="http://www.w3.org/2000/svg">
<path d="M112.058 224.112C92.444 224.112 73.206 218.924 56.167 209.072L12.508 224.112L21.482 177.882C7.41501 158.604 0 135.927 0 112.058C0 50.268 50.27 0 112.058 0C173.854 0 224.118 50.268 224.118 112.058C224.118 173.844 173.854 224.112 112.058 224.112Z" fill="#32BA46"/>
<path d="M112.058 185.263C99.2461 185.263 86.677 181.871 75.547 175.434L47.0251 185.263L52.884 155.058C43.697 142.463 38.8521 127.651 38.8521 112.054C38.8521 71.688 71.6921 38.848 112.058 38.848C152.427 38.848 185.267 71.688 185.267 112.054C185.267 152.422 152.427 185.263 112.058 185.263ZM76.8611 163.462L79.067 164.843C89.008 171.076 100.418 174.37 112.057 174.37C146.422 174.37 174.376 146.416 174.376 112.054C174.376 77.695 146.422 49.741 112.057 49.741C77.6981 49.741 49.744 77.695 49.744 112.054C49.744 126.034 54.324 139.281 62.98 150.359L64.511 152.316L61.3071 168.82L76.8611 163.462Z" fill="white"/>
<path d="M75.101 83.9281C75.101 83.9281 79.399 76.42 82.899 75.991C86.401 75.56 90.91 75.56 92.124 77.849C93.341 80.136 98.773 93.44 98.773 93.44C98.773 93.44 99.706 95.7281 98.276 97.9461C96.846 100.162 93.628 103.379 93.628 103.379C93.628 103.379 91.84 105.667 93.628 108.1C95.416 110.529 98.189 115 103.927 120.731C109.655 126.466 120.657 130.555 120.657 130.555C120.657 130.555 122.232 130.768 123.235 129.768C124.233 128.767 129.671 121.973 129.671 121.973C129.671 121.973 131.415 119.722 134.316 121.044C137.211 122.366 149.761 128.624 149.761 128.624C149.761 128.624 151.229 129.159 151.229 131.376C151.229 133.592 150.332 139.017 148.498 140.85C146.663 142.686 141.302 148.339 133.242 148.339C125.184 148.339 105.994 141.781 95.768 131.557C85.542 121.329 76.462 110.958 74.319 101.522C72.172 92.082 72.46 87.8161 75.101 83.9281Z" fill="white"/>
</svg>
